<?xml version="1.0" standalone="no"?>
<!DOCTYPE svg PUBLIC "-//W3C//DTD SVG 20010904//EN"
 "http://www.w3.org/TR/2001/REC-SVG-20010904/DTD/svg10.dtd">
<svg version="1.0" xmlns="http://www.w3.org/2000/svg"
 width="300.000000pt" height="307.000000pt" viewBox="0 0 300.000000 307.000000"
 preserveAspectRatio="xMidYMid meet">
<metadata>
Created by potrace 1.10, written by Peter Selinger 2001-2011
</metadata>
<g transform="translate(0.000000,307.000000) scale(0.050000,-0.050000)"
fill="#000000" stroke="none">
<path d="M2580 5740 c-443 -62 -798 -198 -1135 -434 -117 -82 -153 -126 -104
-126 51 0 214 -196 249 -299 170 -514 -455 -946 -851 -587 -44 39 -83 68 -87
64 -38 -40 -172 -434 -172 -504 0 -45 -13 -48 286 65 1262 478 2682 507 3427
71 208 -123 104 -154 -563 -169 -879 -19 -894 -49 -324 -636 519 -535 623
-722 666 -1199 14 -155 96 -309 295 -555 l48 -60 132 115 c1166 1024 1099
2852 -139 3780 -481 362 -1172 551 -1728 474z"/>
<path d="M726 3171 c-249 -78 -301 -150 -256 -356 276 -1286 1544 -2131 2830
-1886 179 34 452 118 485 150 41 37 -1408 1314 -2069 1824 -320 246 -716 354
-990 268z"/>
<path d="M4883 1537 c-317 -157 -226 -624 128 -653 388 -32 516 494 159 658
-105 49 -181 47 -287 -5z"/>
</g>
</svg>
